<?xml version="1.0" encoding="iso-8859-1"?>
<!DOCTYPE svg PUBLIC "-//W3C//DTD SVG 1.0//EN" "http://www.w3.org/TR/2001/REC-SVG-20010904/DTD/svg10.dtd">
<svg width="1160" height="754" xmlns="http://www.w3.org/2000/svg" xmlns:xlink="http://www.w3.org/1999/xlink">
<g style="stroke:black;fill:lightgreen" transform="translate(30,30)">
<line x1="431" y1="54" x2="423" y2="54" style="stroke:blue; stroke-width:1"/>
<line x1="431" y1="42" x2="423" y2="42" style="stroke:blue; stroke-width:1"/>
<line x1="440" y1="29" x2="432" y2="29" style="stroke:blue; stroke-width:1"/>
<line x1="440" y1="16" x2="451" y2="16" style="stroke:blue; stroke-width:1"/>
<line x1="414" y1="131" x2="419" y2="131" style="stroke:blue; stroke-width:1"/>
<line x1="414" y1="119" x2="406" y2="119" style="stroke:blue; stroke-width:1"/>
<line x1="409" y1="93" x2="410" y2="93" style="stroke:blue; stroke-width:1"/>
<line x1="409" y1="80" x2="406" y2="80" style="stroke:blue; stroke-width:1"/>
<line x1="379" y1="104" x2="379" y2="106" style="stroke:blue; stroke-width:1"/>
<line x1="379" y1="106" x2="411" y2="106" style="stroke:blue; stroke-width:1"/>
<line x1="484" y1="157" x2="477" y2="157" style="stroke:blue; stroke-width:1"/>
<line x1="484" y1="144" x2="504" y2="144" style="stroke:blue; stroke-width:1"/>
<line x1="396" y1="168" x2="396" y2="170" style="stroke:blue; stroke-width:1"/>
<line x1="396" y1="170" x2="411" y2="170" style="stroke:blue; stroke-width:1"/>
<line x1="379" y1="195" x2="371" y2="195" style="stroke:blue; stroke-width:1"/>
<line x1="379" y1="183" x2="381" y2="183" style="stroke:blue; stroke-width:1"/>
<line x1="360" y1="207" x2="360" y2="208" style="stroke:blue; stroke-width:1"/>
<line x1="360" y1="208" x2="367" y2="208" style="stroke:blue; stroke-width:1"/>
<line x1="428" y1="272" x2="420" y2="272" style="stroke:blue; stroke-width:1"/>
<line x1="428" y1="259" x2="420" y2="259" style="stroke:blue; stroke-width:1"/>
<line x1="351" y1="283" x2="351" y2="285" style="stroke:blue; stroke-width:1"/>
<line x1="351" y1="285" x2="399" y2="285" style="stroke:blue; stroke-width:1"/>
<line x1="459" y1="311" x2="458" y2="311" style="stroke:blue; stroke-width:1"/>
<line x1="459" y1="298" x2="476" y2="298" style="stroke:blue; stroke-width:1"/>
<line x1="658" y1="477" x2="654" y2="477" style="stroke:blue; stroke-width:1"/>
<line x1="658" y1="465" x2="650" y2="465" style="stroke:blue; stroke-width:1"/>
<line x1="590" y1="489" x2="590" y2="490" style="stroke:blue; stroke-width:1"/>
<line x1="590" y1="490" x2="600" y2="490" style="stroke:blue; stroke-width:1"/>
<line x1="535" y1="500" x2="535" y2="503" style="stroke:blue; stroke-width:1"/>
<line x1="535" y1="503" x2="678" y2="503" style="stroke:blue; stroke-width:1"/>
<line x1="700" y1="375" x2="749" y2="375" style="stroke:blue; stroke-width:1"/>
<line x1="700" y1="362" x2="837" y2="362" style="stroke:blue; stroke-width:1"/>
<line x1="672" y1="386" x2="672" y2="388" style="stroke:blue; stroke-width:1"/>
<line x1="672" y1="388" x2="986" y2="388" style="stroke:blue; stroke-width:1"/>
<line x1="592" y1="397" x2="592" y2="400" style="stroke:blue; stroke-width:1"/>
<line x1="592" y1="400" x2="646" y2="400" style="stroke:blue; stroke-width:1"/>
<line x1="570" y1="409" x2="570" y2="413" style="stroke:blue; stroke-width:1"/>
<line x1="570" y1="413" x2="784" y2="413" style="stroke:blue; stroke-width:1"/>
<line x1="555" y1="422" x2="555" y2="426" style="stroke:blue; stroke-width:1"/>
<line x1="555" y1="426" x2="734" y2="426" style="stroke:blue; stroke-width:1"/>
<line x1="686" y1="452" x2="690" y2="452" style="stroke:blue; stroke-width:1"/>
<line x1="686" y1="439" x2="697" y2="439" style="stroke:blue; stroke-width:1"/>
<line x1="501" y1="605" x2="506" y2="605" style="stroke:blue; stroke-width:1"/>
<line x1="501" y1="593" x2="495" y2="593" style="stroke:blue; stroke-width:1"/>
<line x1="437" y1="617" x2="437" y2="618" style="stroke:blue; stroke-width:1"/>
<line x1="437" y1="618" x2="566" y2="618" style="stroke:blue; stroke-width:1"/>
<line x1="510" y1="580" x2="652" y2="580" style="stroke:blue; stroke-width:1"/>
<line x1="510" y1="567" x2="737" y2="567" style="stroke:blue; stroke-width:1"/>
<line x1="603" y1="529" x2="789" y2="529" style="stroke:blue; stroke-width:1"/>
<line x1="603" y1="516" x2="729" y2="516" style="stroke:blue; stroke-width:1"/>
<line x1="537" y1="540" x2="537" y2="541" style="stroke:blue; stroke-width:1"/>
<line x1="537" y1="541" x2="633" y2="541" style="stroke:blue; stroke-width:1"/>
<line x1="458" y1="551" x2="458" y2="554" style="stroke:blue; stroke-width:1"/>
<line x1="458" y1="554" x2="646" y2="554" style="stroke:blue; stroke-width:1"/>
<line x1="662" y1="644" x2="755" y2="644" style="stroke:blue; stroke-width:1"/>
<line x1="662" y1="631" x2="832" y2="631" style="stroke:blue; stroke-width:1"/>
<line x1="613" y1="655" x2="613" y2="657" style="stroke:blue; stroke-width:1"/>
<line x1="613" y1="657" x2="749" y2="657" style="stroke:blue; stroke-width:1"/>
<line x1="581" y1="666" x2="581" y2="670" style="stroke:blue; stroke-width:1"/>
<line x1="581" y1="670" x2="649" y2="670" style="stroke:blue; stroke-width:1"/>
<line x1="563" y1="678" x2="563" y2="682" style="stroke:blue; stroke-width:1"/>
<line x1="563" y1="682" x2="682" y2="682" style="stroke:blue; stroke-width:1"/>
<line x1="548" y1="691" x2="548" y2="695" style="stroke:blue; stroke-width:1"/>
<line x1="548" y1="695" x2="618" y2="695" style="stroke:blue; stroke-width:1"/>
<line x1="16" y1="611" x2="16" y2="708" style="stroke:blue; stroke-width:1"/>
<line x1="16" y1="708" x2="418" y2="708" style="stroke:blue; stroke-width:1"/>
<line x1="351" y1="336" x2="501" y2="336" style="stroke:blue; stroke-width:1"/>
<line x1="351" y1="324" x2="429" y2="324" style="stroke:blue; stroke-width:1"/>
<line x1="309" y1="348" x2="309" y2="349" style="stroke:blue; stroke-width:1"/>
<line x1="309" y1="349" x2="416" y2="349" style="stroke:blue; stroke-width:1"/>
<line x1="243" y1="228" x2="243" y2="247" style="stroke:blue; stroke-width:1"/>
<line x1="243" y1="247" x2="323" y2="247" style="stroke:blue; stroke-width:1"/>
<line x1="330" y1="234" x2="575" y2="234" style="stroke:blue; stroke-width:1"/>
<line x1="330" y1="221" x2="455" y2="221" style="stroke:blue; stroke-width:1"/>
<line x1="388" y1="59" x2="388" y2="67" style="stroke:blue; stroke-width:1"/>
<line x1="388" y1="67" x2="428" y2="67" style="stroke:blue; stroke-width:1"/>
<line x1="415" y1="43" x2="415" y2="48" style="stroke:blue; stroke-width:1"/>
<line x1="415" y1="48" x2="415" y2="48" style="stroke:blue; stroke-width:1"/>
<line x1="415" y1="27" x2="415" y2="22" style="stroke:blue; stroke-width:1"/>
<line x1="415" y1="22" x2="424" y2="22" style="stroke:blue; stroke-width:1"/>
<line x1="388" y1="43" x2="388" y2="35" style="stroke:blue; stroke-width:1"/>
<line x1="388" y1="35" x2="407" y2="35" style="stroke:blue; stroke-width:1"/>
<line x1="370" y1="119" x2="370" y2="125" style="stroke:blue; stroke-width:1"/>
<line x1="370" y1="125" x2="398" y2="125" style="stroke:blue; stroke-width:1"/>
<line x1="379" y1="88" x2="379" y2="86" style="stroke:blue; stroke-width:1"/>
<line x1="379" y1="86" x2="393" y2="86" style="stroke:blue; stroke-width:1"/>
<line x1="370" y1="103" x2="370" y2="96" style="stroke:blue; stroke-width:1"/>
<line x1="370" y1="96" x2="371" y2="96" style="stroke:blue; stroke-width:1"/>
<line x1="365" y1="89" x2="365" y2="111" style="stroke:blue; stroke-width:1"/>
<line x1="365" y1="111" x2="365" y2="111" style="stroke:blue; stroke-width:1"/>
<line x1="396" y1="152" x2="396" y2="151" style="stroke:blue; stroke-width:1"/>
<line x1="396" y1="151" x2="468" y2="151" style="stroke:blue; stroke-width:1"/>
<line x1="290" y1="129" x2="290" y2="160" style="stroke:blue; stroke-width:1"/>
<line x1="290" y1="160" x2="388" y2="160" style="stroke:blue; stroke-width:1"/>
<line x1="360" y1="191" x2="360" y2="189" style="stroke:blue; stroke-width:1"/>
<line x1="360" y1="189" x2="363" y2="189" style="stroke:blue; stroke-width:1"/>
<line x1="277" y1="168" x2="277" y2="199" style="stroke:blue; stroke-width:1"/>
<line x1="277" y1="199" x2="352" y2="199" style="stroke:blue; stroke-width:1"/>
<line x1="351" y1="267" x2="351" y2="266" style="stroke:blue; stroke-width:1"/>
<line x1="351" y1="266" x2="412" y2="266" style="stroke:blue; stroke-width:1"/>
<line x1="301" y1="282" x2="301" y2="275" style="stroke:blue; stroke-width:1"/>
<line x1="301" y1="275" x2="343" y2="275" style="stroke:blue; stroke-width:1"/>
<line x1="301" y1="298" x2="301" y2="304" style="stroke:blue; stroke-width:1"/>
<line x1="301" y1="304" x2="443" y2="304" style="stroke:blue; stroke-width:1"/>
<line x1="209" y1="263" x2="209" y2="290" style="stroke:blue; stroke-width:1"/>
<line x1="209" y1="290" x2="293" y2="290" style="stroke:blue; stroke-width:1"/>
<line x1="590" y1="473" x2="590" y2="471" style="stroke:blue; stroke-width:1"/>
<line x1="590" y1="471" x2="642" y2="471" style="stroke:blue; stroke-width:1"/>
<line x1="535" y1="484" x2="535" y2="481" style="stroke:blue; stroke-width:1"/>
<line x1="535" y1="481" x2="582" y2="481" style="stroke:blue; stroke-width:1"/>
<line x1="487" y1="469" x2="487" y2="492" style="stroke:blue; stroke-width:1"/>
<line x1="487" y1="492" x2="527" y2="492" style="stroke:blue; stroke-width:1"/>
<line x1="672" y1="370" x2="672" y2="368" style="stroke:blue; stroke-width:1"/>
<line x1="672" y1="368" x2="684" y2="368" style="stroke:blue; stroke-width:1"/>
<line x1="592" y1="381" x2="592" y2="378" style="stroke:blue; stroke-width:1"/>
<line x1="592" y1="378" x2="664" y2="378" style="stroke:blue; stroke-width:1"/>
<line x1="570" y1="393" x2="570" y2="389" style="stroke:blue; stroke-width:1"/>
<line x1="570" y1="389" x2="584" y2="389" style="stroke:blue; stroke-width:1"/>
<line x1="555" y1="406" x2="555" y2="401" style="stroke:blue; stroke-width:1"/>
<line x1="555" y1="401" x2="562" y2="401" style="stroke:blue; stroke-width:1"/>
<line x1="527" y1="421" x2="527" y2="414" style="stroke:blue; stroke-width:1"/>
<line x1="527" y1="414" x2="547" y2="414" style="stroke:blue; stroke-width:1"/>
<line x1="527" y1="437" x2="527" y2="445" style="stroke:blue; stroke-width:1"/>
<line x1="527" y1="445" x2="670" y2="445" style="stroke:blue; stroke-width:1"/>
<line x1="487" y1="453" x2="487" y2="429" style="stroke:blue; stroke-width:1"/>
<line x1="487" y1="429" x2="519" y2="429" style="stroke:blue; stroke-width:1"/>
<line x1="251" y1="514" x2="251" y2="461" style="stroke:blue; stroke-width:1"/>
<line x1="251" y1="461" x2="479" y2="461" style="stroke:blue; stroke-width:1"/>
<line x1="437" y1="601" x2="437" y2="599" style="stroke:blue; stroke-width:1"/>
<line x1="437" y1="599" x2="485" y2="599" style="stroke:blue; stroke-width:1"/>
<line x1="304" y1="591" x2="304" y2="609" style="stroke:blue; stroke-width:1"/>
<line x1="304" y1="609" x2="429" y2="609" style="stroke:blue; stroke-width:1"/>
<line x1="439" y1="566" x2="439" y2="573" style="stroke:blue; stroke-width:1"/>
<line x1="439" y1="573" x2="494" y2="573" style="stroke:blue; stroke-width:1"/>
<line x1="537" y1="524" x2="537" y2="522" style="stroke:blue; stroke-width:1"/>
<line x1="537" y1="522" x2="587" y2="522" style="stroke:blue; stroke-width:1"/>
<line x1="458" y1="535" x2="458" y2="532" style="stroke:blue; stroke-width:1"/>
<line x1="458" y1="532" x2="529" y2="532" style="stroke:blue; stroke-width:1"/>
<line x1="439" y1="550" x2="439" y2="543" style="stroke:blue; stroke-width:1"/>
<line x1="439" y1="543" x2="450" y2="543" style="stroke:blue; stroke-width:1"/>
<line x1="304" y1="575" x2="304" y2="558" style="stroke:blue; stroke-width:1"/>
<line x1="304" y1="558" x2="431" y2="558" style="stroke:blue; stroke-width:1"/>
<line x1="251" y1="530" x2="251" y2="583" style="stroke:blue; stroke-width:1"/>
<line x1="251" y1="583" x2="296" y2="583" style="stroke:blue; stroke-width:1"/>
<line x1="197" y1="594" x2="197" y2="522" style="stroke:blue; stroke-width:1"/>
<line x1="197" y1="522" x2="243" y2="522" style="stroke:blue; stroke-width:1"/>
<line x1="613" y1="639" x2="613" y2="638" style="stroke:blue; stroke-width:1"/>
<line x1="613" y1="638" x2="646" y2="638" style="stroke:blue; stroke-width:1"/>
<line x1="581" y1="650" x2="581" y2="647" style="stroke:blue; stroke-width:1"/>
<line x1="581" y1="647" x2="605" y2="647" style="stroke:blue; stroke-width:1"/>
<line x1="563" y1="662" x2="563" y2="658" style="stroke:blue; stroke-width:1"/>
<line x1="563" y1="658" x2="573" y2="658" style="stroke:blue; stroke-width:1"/>
<line x1="548" y1="675" x2="548" y2="670" style="stroke:blue; stroke-width:1"/>
<line x1="548" y1="670" x2="555" y2="670" style="stroke:blue; stroke-width:1"/>
<line x1="197" y1="610" x2="197" y2="683" style="stroke:blue; stroke-width:1"/>
<line x1="197" y1="683" x2="540" y2="683" style="stroke:blue; stroke-width:1"/>
<line x1="24" y1="602" x2="189" y2="602" style="stroke:blue; stroke-width:1"/>
<line x1="309" y1="332" x2="309" y2="330" style="stroke:blue; stroke-width:1"/>
<line x1="309" y1="330" x2="335" y2="330" style="stroke:blue; stroke-width:1"/>
<line x1="169" y1="305" x2="169" y2="340" style="stroke:blue; stroke-width:1"/>
<line x1="169" y1="340" x2="301" y2="340" style="stroke:blue; stroke-width:1"/>
<line x1="16" y1="595" x2="16" y2="297" style="stroke:blue; stroke-width:1"/>
<line x1="16" y1="297" x2="161" y2="297" style="stroke:blue; stroke-width:1"/>
<line x1="169" y1="289" x2="169" y2="255" style="stroke:blue; stroke-width:1"/>
<line x1="169" y1="255" x2="201" y2="255" style="stroke:blue; stroke-width:1"/>
<line x1="209" y1="247" x2="209" y2="220" style="stroke:blue; stroke-width:1"/>
<line x1="209" y1="220" x2="235" y2="220" style="stroke:blue; stroke-width:1"/>
<line x1="252" y1="202" x2="252" y2="227" style="stroke:blue; stroke-width:1"/>
<line x1="252" y1="227" x2="314" y2="227" style="stroke:blue; stroke-width:1"/>
<line x1="243" y1="212" x2="243" y2="194" style="stroke:blue; stroke-width:1"/>
<line x1="243" y1="194" x2="244" y2="194" style="stroke:blue; stroke-width:1"/>
<line x1="252" y1="186" x2="252" y2="160" style="stroke:blue; stroke-width:1"/>
<line x1="252" y1="160" x2="269" y2="160" style="stroke:blue; stroke-width:1"/>
<line x1="277" y1="152" x2="277" y2="121" style="stroke:blue; stroke-width:1"/>
<line x1="277" y1="121" x2="282" y2="121" style="stroke:blue; stroke-width:1"/>
<line x1="290" y1="113" x2="290" y2="81" style="stroke:blue; stroke-width:1"/>
<line x1="290" y1="81" x2="357" y2="81" style="stroke:blue; stroke-width:1"/>
<line x1="365" y1="73" x2="365" y2="51" style="stroke:blue; stroke-width:1"/>
<line x1="365" y1="51" x2="380" y2="51" style="stroke:blue; stroke-width:1"/>
<text x="11" y="605" font-weight = "10" font-family="verdana" fill="black" font-size="12">97</text>
<text x="430" y="711" font-weight = "10" font-family="verdana" fill="black" font-size="14">partial_Thyroptera_tricolor_ace2</text>
<text x="193" y="604" font-weight = "10" font-family="verdana" fill="black" font-size="12">96</text>
<text x="544" y="685" font-weight = "10" font-family="verdana" fill="black" font-size="12">95</text>
<text x="630" y="698" font-weight = "10" font-family="verdana" fill="black" font-size="14">Pteropus_lylei_ace2</text>
<text x="558" y="672" font-weight = "10" font-family="verdana" fill="black" font-size="12">94</text>
<text x="694" y="685" font-weight = "10" font-family="verdana" fill="black" font-size="14">Syconycteris_australis_ace2</text>
<text x="577" y="660" font-weight = "10" font-family="verdana" fill="black" font-size="12">93</text>
<text x="661" y="673" font-weight = "10" font-family="verdana" fill="black" font-size="14">Dobsonia_viridis_ace2</text>
<text x="608" y="649" font-weight = "10" font-family="verdana" fill="black" font-size="12">92</text>
<text x="761" y="660" font-weight = "10" font-family="verdana" fill="black" font-size="14">Cynopterus_sphinx_ace2</text>
<text x="650" y="640" font-weight = "10" font-family="verdana" fill="black" font-size="12">91</text>
<text x="767" y="647" font-weight = "10" font-family="verdana" fill="black" font-size="14">Epomophorus_wahlbergi_ace2</text>
<text x="844" y="634" font-weight = "10" font-family="verdana" fill="black" font-size="14">Rousettus_leschenaultii_ace2</text>
<text x="247" y="524" font-weight = "10" font-family="verdana" fill="black" font-size="12">90</text>
<text x="300" y="585" font-weight = "10" font-family="verdana" fill="black" font-size="12">89</text>
<text x="433" y="611" font-weight = "10" font-family="verdana" fill="black" font-size="12">83</text>
<text x="578" y="621" font-weight = "10" font-family="verdana" fill="black" font-size="14">partial_Taphozous_perforatus_ace2</text>
<text x="488" y="601" font-weight = "10" font-family="verdana" fill="black" font-size="12">82</text>
<text x="518" y="608" font-weight = "10" font-family="verdana" fill="black" font-size="14">Taphozous_melanopogon_ace2</text>
<text x="507" y="596" font-weight = "10" font-family="verdana" fill="black" font-size="14">Taphozous_theobaldi_ace2</text>
<text x="434" y="560" font-weight = "10" font-family="verdana" fill="black" font-size="12">88</text>
<text x="498" y="575" font-weight = "10" font-family="verdana" fill="black" font-size="12">84</text>
<text x="664" y="583" font-weight = "10" font-family="verdana" fill="black" font-size="14">Emballonura_alecto_ace2</text>
<text x="749" y="570" font-weight = "10" font-family="verdana" fill="black" font-size="14">Coleura_afra_ace2</text>
<text x="454" y="545" font-weight = "10" font-family="verdana" fill="black" font-size="12">87</text>
<text x="658" y="557" font-weight = "10" font-family="verdana" fill="black" font-size="14">Balantiopteryx_plicata_ace2</text>
<text x="533" y="534" font-weight = "10" font-family="verdana" fill="black" font-size="12">86</text>
<text x="645" y="544" font-weight = "10" font-family="verdana" fill="black" font-size="14">Rhynchonycteris_naso_ace2</text>
<text x="591" y="524" font-weight = "10" font-family="verdana" fill="black" font-size="12">85</text>
<text x="801" y="532" font-weight = "10" font-family="verdana" fill="black" font-size="14">Saccopteryx_bilineata_ace2</text>
<text x="741" y="519" font-weight = "10" font-family="verdana" fill="black" font-size="14">Centronycteris_centralis_ace2</text>
<text x="482" y="463" font-weight = "10" font-family="verdana" fill="black" font-size="12">81</text>
<text x="530" y="494" font-weight = "10" font-family="verdana" fill="black" font-size="12">73</text>
<text x="690" y="506" font-weight = "10" font-family="verdana" fill="black" font-size="14">Kerivoula_pellucida_ace2</text>
<text x="585" y="483" font-weight = "10" font-family="verdana" fill="black" font-size="12">72</text>
<text x="612" y="493" font-weight = "10" font-family="verdana" fill="black" font-size="14">Myotis_tricolor_ace2</text>
<text x="645" y="473" font-weight = "10" font-family="verdana" fill="black" font-size="12">71</text>
<text x="666" y="480" font-weight = "10" font-family="verdana" fill="black" font-size="14">Myotis_keaysi_ace2</text>
<text x="654" y="468" font-weight = "10" font-family="verdana" fill="black" font-size="14">Myotis_riparius_ace2</text>
<text x="523" y="431" font-weight = "10" font-family="verdana" fill="black" font-size="12">80</text>
<text x="674" y="447" font-weight = "10" font-family="verdana" fill="black" font-size="12">79</text>
<text x="702" y="455" font-weight = "10" font-family="verdana" fill="black" font-size="14">Scotophilus_dinganii_ace2</text>
<text x="709" y="442" font-weight = "10" font-family="verdana" fill="black" font-size="14">Scotophilus_kuhlii_ace2</text>
<text x="551" y="416" font-weight = "10" font-family="verdana" fill="black" font-size="12">78</text>
<text x="746" y="429" font-weight = "10" font-family="verdana" fill="black" font-size="14">Antrozous_pallidus_ace2</text>
<text x="565" y="403" font-weight = "10" font-family="verdana" fill="black" font-size="12">77</text>
<text x="796" y="416" font-weight = "10" font-family="verdana" fill="black" font-size="14">partial_Aeorestes_cinereus_ace2</text>
<text x="587" y="391" font-weight = "10" font-family="verdana" fill="black" font-size="12">76</text>
<text x="658" y="403" font-weight = "10" font-family="verdana" fill="black" font-size="14">Eptesicus_brasiliensis_ace2</text>
<text x="668" y="380" font-weight = "10" font-family="verdana" fill="black" font-size="12">75</text>
<text x="998" y="391" font-weight = "10" font-family="verdana" fill="black" font-size="14">partial_Pipistrellus_javanicus_ace2</text>
<text x="687" y="370" font-weight = "10" font-family="verdana" fill="black" font-size="12">74</text>
<text x="761" y="378" font-weight = "10" font-family="verdana" fill="black" font-size="14">Afronycteris_nana_ace2</text>
<text x="849" y="365" font-weight = "10" font-family="verdana" fill="black" font-size="14">Tylonycteris_robustula_ace2</text>
<text x="165" y="299" font-weight = "10" font-family="verdana" fill="black" font-size="12">100</text>
<text x="304" y="342" font-weight = "10" font-family="verdana" fill="black" font-size="12">99</text>
<text x="428" y="352" font-weight = "10" font-family="verdana" fill="black" font-size="14">Micronycteris_microtis_ace2</text>
<text x="338" y="332" font-weight = "10" font-family="verdana" fill="black" font-size="12">98</text>
<text x="513" y="339" font-weight = "10" font-family="verdana" fill="black" font-size="14">Micronycteris_schmidtorum_ace2</text>
<text x="441" y="327" font-weight = "10" font-family="verdana" fill="black" font-size="14">Micronycteris_hirsuta_ace2</text>
<text x="204" y="257" font-weight = "10" font-family="verdana" fill="black" font-size="12">101</text>
<text x="296" y="292" font-weight = "10" font-family="verdana" fill="black" font-size="12">70</text>
<text x="446" y="306" font-weight = "10" font-family="verdana" fill="black" font-size="12">69</text>
<text x="470" y="314" font-weight = "10" font-family="verdana" fill="black" font-size="14">Glossophaga_commissarisi_ace2</text>
<text x="488" y="301" font-weight = "10" font-family="verdana" fill="black" font-size="14">Glossophaga_soricina_ace2</text>
<text x="347" y="277" font-weight = "10" font-family="verdana" fill="black" font-size="12">68</text>
<text x="411" y="288" font-weight = "10" font-family="verdana" fill="black" font-size="14">Anoura_cultrata_ace2</text>
<text x="416" y="268" font-weight = "10" font-family="verdana" fill="black" font-size="12">67</text>
<text x="424" y="275" font-weight = "10" font-family="verdana" fill="black" font-size="14">Hylonycteris_underwoodi_ace2</text>
<text x="430" y="262" font-weight = "10" font-family="verdana" fill="black" font-size="14">Anoura_geoffroyi_ace2</text>
<text x="239" y="222" font-weight = "10" font-family="verdana" fill="black" font-size="12">102</text>
<text x="335" y="250" font-weight = "10" font-family="verdana" fill="black" font-size="14">Vampyrum_spectrum_ace2</text>
<text x="247" y="196" font-weight = "10" font-family="verdana" fill="black" font-size="12">104</text>
<text x="317" y="229" font-weight = "10" font-family="verdana" fill="black" font-size="12">103</text>
<text x="587" y="237" font-weight = "10" font-family="verdana" fill="black" font-size="14">Lonchophylla_robusta_ace2</text>
<text x="467" y="224" font-weight = "10" font-family="verdana" fill="black" font-size="14">Phyllostomus_hastatus_ace2</text>
<text x="272" y="162" font-weight = "10" font-family="verdana" fill="black" font-size="12">105</text>
<text x="355" y="201" font-weight = "10" font-family="verdana" fill="black" font-size="12">66</text>
<text x="379" y="211" font-weight = "10" font-family="verdana" fill="black" font-size="14">Sturnira_parvidens_ace2</text>
<text x="367" y="191" font-weight = "10" font-family="verdana" fill="black" font-size="12">65</text>
<text x="375" y="198" font-weight = "10" font-family="verdana" fill="black" font-size="14">Sturnira_hondurensis_ace2</text>
<text x="393" y="186" font-weight = "10" font-family="verdana" fill="black" font-size="14">Sturnira_ludovici_ace2</text>
<text x="286" y="123" font-weight = "10" font-family="verdana" fill="black" font-size="12">106</text>
<text x="392" y="162" font-weight = "10" font-family="verdana" fill="black" font-size="12">64</text>
<text x="423" y="173" font-weight = "10" font-family="verdana" fill="black" font-size="14">Carollia_castanea_ace2</text>
<text x="471" y="153" font-weight = "10" font-family="verdana" fill="black" font-size="12">63</text>
<text x="489" y="160" font-weight = "10" font-family="verdana" fill="black" font-size="14">Carollia_sowelli_ace2</text>
<text x="516" y="147" font-weight = "10" font-family="verdana" fill="black" font-size="14">Carollia_perspicillata_ace2</text>
<text x="361" y="83" font-weight = "10" font-family="verdana" fill="black" font-size="12">107</text>
<text x="366" y="113" font-weight = "10" font-family="verdana" fill="black" font-size="12">62</text>
<text x="401" y="127" font-weight = "10" font-family="verdana" fill="black" font-size="12">59</text>
<text x="431" y="134" font-weight = "10" font-family="verdana" fill="black" font-size="14">Chiroderma_villosum_ace2</text>
<text x="410" y="122" font-weight = "10" font-family="verdana" fill="black" font-size="14">Chiroderma_salvini_ace2</text>
<text x="375" y="98" font-weight = "10" font-family="verdana" fill="black" font-size="12">61</text>
<text x="423" y="109" font-weight = "10" font-family="verdana" fill="black" font-size="14">Uroderma_bilobatum_ace2</text>
<text x="396" y="88" font-weight = "10" font-family="verdana" fill="black" font-size="12">60</text>
<text x="422" y="96" font-weight = "10" font-family="verdana" fill="black" font-size="14">Platyrrhinus_helleri_ace2</text>
<text x="418" y="83" font-weight = "10" font-family="verdana" fill="black" font-size="14">Platyrrhinus_vittatus_ace2</text>
<text x="383" y="53" font-weight = "10" font-family="verdana" fill="black" font-size="12">108</text>
<text x="440" y="70" font-weight = "10" font-family="verdana" fill="black" font-size="14">Artibeus_hartii_ace2</text>
<text x="410" y="37" font-weight = "10" font-family="verdana" fill="black" font-size="12">58</text>
<text x="419" y="50" font-weight = "10" font-family="verdana" fill="black" font-size="12">56</text>
<text x="427" y="57" font-weight = "10" font-family="verdana" fill="black" font-size="14">Artibeus_phaeotis_ace2</text>
<text x="427" y="45" font-weight = "10" font-family="verdana" fill="black" font-size="14">Artibeus_glaucus_watsoni_ace2</text>
<text x="428" y="24" font-weight = "10" font-family="verdana" fill="black" font-size="12">57</text>
<text x="441" y="32" font-weight = "10" font-family="verdana" fill="black" font-size="14">Artibeus_lituratus_ace2</text>
<text x="463" y="19" font-weight = "10" font-family="verdana" fill="black" font-size="14">Artibeus_jamaicensis_ace2</text>
</g></svg>